<svg width="230" height="38" viewBox="0 0 230 38" fill="none" xmlns="http://www.w3.org/2000/svg">
<path d="M20.2391 30.3986L28.4039 19.7091C28.7135 19.3014 28.7711 18.5497 28.5335 18.0356L23.8103 7.76451C23.5727 7.25042 22.9175 6.83206 22.3487 6.83206L9.27717 6.8427L0.435584 18.4292C-0.0504155 19.0603 -0.140415 20.2338 0.226784 21.0351L4.88158 31.1502L18.6516 31.136C19.2132 31.136 19.9295 30.8063 20.2391 30.3986Z" fill="url(#paint0_linear)"/>
<path d="M43.7545 17.5074L36.3709 1.45719C36.0037 0.652375 34.9741 -0.00353113 34.0921 1.43061e-05L16.0598 0.0212869C15.1778 0.0212869 14.0546 0.538921 13.5686 1.17001L11.5418 3.82554L29.4949 3.80427C30.2005 3.80427 31.0249 4.32899 31.3201 4.96717L37.2241 17.8088C37.5193 18.4505 37.4473 19.39 37.0585 19.8935L26.8489 33.2598C26.4673 33.7668 25.5709 34.1816 24.8581 34.1816L6.12018 34.2064L7.19298 36.5393C7.56378 37.3441 8.58977 38.0036 9.47537 38L28.3033 37.9787C29.1889 37.9787 30.3085 37.4576 30.7909 36.8265L43.5493 20.1168C44.0317 19.4857 44.1253 18.3087 43.7545 17.5074Z" fill="url(#paint1_linear)"/>
<path d="M89.7263 25.8746C89.7263 27.0269 88.7795 27.9593 87.6095 27.9593C86.4395 27.9593 85.4927 27.0269 85.4927 25.8746C85.4927 24.7223 86.4395 23.7899 87.6095 23.7899C88.7795 23.7934 89.7263 24.7259 89.7263 25.8746Z" fill="#F39800"/>
<path d="M54.9144 34.1249V17.2557H60.7104C63.0468 17.2557 64.8972 17.5996 66.258 18.2909C67.6188 18.9788 68.7024 19.9928 69.5088 21.3329C70.3116 22.6731 70.7148 24.1303 70.7148 25.7115C70.7148 26.839 70.4916 27.9204 70.0488 28.9556C69.606 29.9873 68.9724 30.895 68.1552 31.6785C67.3164 32.4833 66.3444 33.0896 65.2356 33.5044C64.5876 33.7526 63.9936 33.9192 63.45 34.0043C62.91 34.0859 61.8732 34.132 60.3504 34.132H54.9144V34.1249ZM60.4512 19.3971H57.3732V31.9799H60.5268C61.7544 31.9799 62.712 31.8983 63.396 31.7317C64.0764 31.5651 64.6452 31.3594 65.1024 31.1006C65.5596 30.8489 65.9736 30.5369 66.3516 30.1646C67.5684 28.9521 68.1768 27.424 68.1768 25.5733C68.1768 23.758 67.5504 22.2725 66.3048 21.1273C65.844 20.7018 65.3184 20.3473 64.7208 20.0743C64.1232 19.7978 63.5616 19.6169 63.0252 19.5283C62.4924 19.4432 61.6356 19.3971 60.4512 19.3971Z" fill="#F39800"/>
<path d="M105.476 17.2557H120.268L109.314 31.9799H120.268V34.1249H104.792L115.732 19.3971H105.476V17.2557Z" fill="#F39800"/>
<path d="M142.83 17.2557H155.124V19.3971H145.289V24.5593H154.882V26.7007H145.289V31.9799H155.365V34.1249H142.83V17.2557Z" fill="#F39800"/>
<path d="M220.744 17.0181C223.39 17.0181 225.594 17.8442 227.354 19.4964C229.118 21.1521 229.996 23.2262 229.996 25.7186C229.996 28.2146 229.107 30.2816 227.329 31.9125C225.55 33.547 223.311 34.366 220.608 34.366C218.026 34.366 215.874 33.5505 214.153 31.9125C212.432 30.2816 211.575 28.2324 211.575 25.7683C211.575 23.2404 212.439 21.1521 214.171 19.4964C215.906 17.8442 218.098 17.0181 220.744 17.0181ZM220.834 19.3156C218.88 19.3156 217.267 19.9218 216.007 21.1344C214.747 22.3434 214.117 23.8927 214.117 25.7718C214.117 27.5977 214.75 29.1152 216.014 30.3242C217.281 31.5367 218.862 32.1394 220.762 32.1394C222.67 32.1394 224.265 31.5225 225.543 30.2887C226.821 29.0549 227.458 27.5162 227.458 25.6725C227.458 23.8821 226.818 22.3753 225.543 21.1521C224.265 19.9289 222.699 19.3156 220.834 19.3156Z" fill="#F39800"/>
<path d="M54.9791 1.69119H58.2226C58.7554 1.69119 59.1946 1.76919 59.5438 1.92519C60.199 2.22301 60.5302 2.77964 60.5302 3.58446C60.5302 4.00636 60.4438 4.35027 60.2674 4.61972C60.0874 4.88563 59.8426 5.1019 59.5222 5.26499C59.7994 5.3749 60.0082 5.52027 60.1486 5.70108C60.289 5.8819 60.3682 6.17617 60.3826 6.5839L60.415 7.52344C60.4258 7.79289 60.4474 7.99498 60.4834 8.12262C60.541 8.34598 60.6418 8.49134 60.793 8.55516V8.71471H59.6194C59.5834 8.65443 59.5582 8.57643 59.5366 8.48071C59.515 8.38498 59.497 8.19707 59.4826 7.92407L59.4178 6.75053C59.3962 6.29317 59.227 5.98472 58.9138 5.82872C58.7338 5.74008 58.453 5.70108 58.0714 5.70108H55.9475V8.71116H54.9827V1.69119H54.9791ZM58.1146 4.91754C58.5538 4.91754 58.903 4.82891 59.1622 4.65163C59.4178 4.47436 59.5474 4.15527 59.5474 3.69082C59.5474 3.19091 59.3674 2.8541 59.0074 2.67328C58.8166 2.57755 58.561 2.53146 58.2406 2.53146H55.9475V4.91754H58.1146Z" fill="#F39800"/>
<path d="M65.3036 3.74045C65.6492 3.91063 65.912 4.13045 66.092 4.40344C66.2648 4.66226 66.3801 4.96362 66.4377 5.31108C66.4917 5.54507 66.5132 5.92089 66.5132 6.43498H62.7188C62.7332 6.95616 62.8592 7.37452 63.0896 7.68652C63.3236 8.00561 63.6836 8.16161 64.1696 8.16161C64.6232 8.16161 64.9868 8.01624 65.2604 7.72197C65.4116 7.55179 65.5196 7.35679 65.5808 7.12988H66.4485C66.4269 7.31779 66.3476 7.52697 66.2216 7.75388C66.092 7.98433 65.948 8.17224 65.7932 8.31761C65.5268 8.56933 65.2028 8.73951 64.8104 8.82815C64.6016 8.87778 64.364 8.9026 64.1012 8.9026C63.4568 8.9026 62.9096 8.6686 62.4596 8.2077C62.0096 7.74325 61.7864 7.09443 61.7864 6.25771C61.7864 5.43517 62.0132 4.76862 62.4632 4.25808C62.9168 3.74399 63.5036 3.48872 64.238 3.48872C64.6052 3.48163 64.9616 3.56672 65.3036 3.74045ZM65.6349 5.75426C65.5989 5.37844 65.516 5.07708 65.3864 4.85017C65.1452 4.43181 64.7456 4.21908 64.184 4.21908C63.7808 4.21908 63.4424 4.36444 63.1688 4.65162C62.8952 4.9388 62.7548 5.30753 62.7368 5.75071H65.6349V5.75426Z" fill="#F39800"/>
<path d="M70.5526 5.59825C70.7541 5.57343 70.8874 5.49188 70.9558 5.34652C70.9882 5.27207 71.0062 5.16216 71.0062 5.02034C71.0062 4.72607 70.8982 4.52043 70.6894 4.38571C70.477 4.25453 70.1782 4.19071 69.7858 4.19071C69.3358 4.19071 69.0154 4.30771 68.8246 4.5488C68.7202 4.67998 68.6482 4.87852 68.6194 5.13734H67.8022C67.8166 4.50271 68.0218 4.06662 68.4214 3.81844C68.8174 3.57026 69.2818 3.44617 69.8074 3.44617C70.4158 3.44617 70.909 3.56317 71.2905 3.79717C71.6685 4.03116 71.8557 4.3928 71.8557 4.87852V7.83896C71.8557 7.9276 71.8737 8.00205 71.9133 8.05524C71.9493 8.11196 72.0285 8.13678 72.1473 8.13678C72.1869 8.13678 72.2265 8.13324 72.2769 8.12969C72.3237 8.12614 72.3777 8.11905 72.4281 8.10842V8.74305C72.2949 8.78205 72.1905 8.80687 72.1185 8.81396C72.0501 8.8246 71.9529 8.83169 71.8305 8.83169C71.5317 8.83169 71.3157 8.72532 71.179 8.51614C71.107 8.40269 71.0601 8.24669 71.0313 8.0446C70.8514 8.27505 70.5957 8.4736 70.2646 8.64378C69.9298 8.81396 69.5626 8.89905 69.163 8.89905C68.6806 8.89905 68.2846 8.75369 67.9786 8.46296C67.6726 8.17578 67.5214 7.8106 67.5214 7.37451C67.5214 6.89588 67.6726 6.52361 67.975 6.26124C68.2738 5.99888 68.6698 5.83579 69.1594 5.77552L70.5526 5.59825ZM68.7166 7.93824C68.9002 8.0836 69.1198 8.15451 69.3718 8.15451C69.6778 8.15451 69.9766 8.0836 70.2646 7.94533C70.7505 7.71487 70.9917 7.33197 70.9917 6.80015V6.09815C70.8837 6.16906 70.7506 6.22579 70.5814 6.26834C70.4158 6.31443 70.2502 6.34633 70.0882 6.36761L69.5626 6.43497C69.2458 6.47397 69.0082 6.54133 68.8462 6.62997C68.5726 6.78242 68.4394 7.01997 68.4394 7.34615C68.4394 7.60142 68.5294 7.79642 68.7166 7.93824Z" fill="#F39800"/>
<path d="M73.4831 1.677H74.3507V8.71824H73.4831V1.677Z" fill="#F39800"/>
<path d="M82.1663 3.87162C82.5335 4.15171 82.7531 4.63389 82.8287 5.31816H81.9791C81.9287 5.00616 81.8099 4.7438 81.6263 4.53462C81.4427 4.32544 81.1475 4.21907 80.7372 4.21907C80.1792 4.21907 79.7832 4.48853 79.5456 5.02389C79.3908 5.37134 79.3116 5.79679 79.3116 6.30379C79.3116 6.81788 79.4231 7.24688 79.6427 7.59788C79.8623 7.94533 80.208 8.1226 80.6795 8.1226C81.0431 8.1226 81.3311 8.01269 81.5435 7.79287C81.7559 7.57306 81.9035 7.27524 81.9827 6.89942H82.8323C82.7351 7.58015 82.4939 8.07651 82.1051 8.39205C81.7199 8.7076 81.2195 8.86714 80.6147 8.86714C79.9343 8.86714 79.3908 8.61896 78.9876 8.12969C78.5844 7.64042 78.3828 7.03061 78.3828 6.2967C78.3828 5.3997 78.6024 4.69771 79.0488 4.1978C79.4916 3.69789 80.0567 3.44617 80.7407 3.44617C81.3239 3.44971 81.7991 3.59153 82.1663 3.87162Z" fill="#F39800"/>
<path d="M87.6238 4.10916C88.081 4.5488 88.3114 5.19407 88.3114 6.04852C88.3114 6.87106 88.1098 7.55178 87.7066 8.09069C87.2998 8.6296 86.6734 8.89905 85.8202 8.89905C85.111 8.89905 84.5458 8.66151 84.1282 8.18287C83.7106 7.70778 83.5018 7.06606 83.5018 6.26834C83.5018 5.4068 83.7214 4.72607 84.1606 4.21553C84.6034 3.70853 85.1938 3.45326 85.9354 3.45326C86.6014 3.44971 87.163 3.66953 87.6238 4.10916ZM87.0766 7.50924C87.2926 7.0767 87.397 6.59806 87.397 6.06979C87.397 5.59116 87.3214 5.20116 87.1666 4.90334C86.9218 4.4318 86.5042 4.1978 85.903 4.1978C85.3738 4.1978 84.985 4.39635 84.7474 4.79698C84.5062 5.20116 84.3874 5.68334 84.3874 6.25061C84.3874 6.79661 84.5062 7.25042 84.7474 7.61206C84.985 7.97724 85.3702 8.15805 85.8922 8.15805C86.4646 8.15451 86.8642 7.93824 87.0766 7.50924Z" fill="#F39800"/>
<path d="M89.5246 3.59508H90.3778V4.32899C90.583 4.07372 90.7702 3.88935 90.9394 3.7759C91.2238 3.5809 91.5514 3.48163 91.9186 3.48163C92.329 3.48163 92.6638 3.58445 92.9158 3.78299C93.0598 3.89999 93.1858 4.07017 93.301 4.29353C93.499 4.01699 93.7258 3.8149 93.9922 3.68017C94.2586 3.54545 94.5574 3.48163 94.885 3.48163C95.5906 3.48163 96.073 3.72981 96.3286 4.22617C96.4654 4.49562 96.5338 4.85371 96.5338 5.30753V8.71824H95.6194V5.16571C95.6194 4.82535 95.5294 4.59135 95.3566 4.46371C95.1802 4.33608 94.9678 4.27226 94.7122 4.27226C94.3666 4.27226 94.0678 4.38572 93.8158 4.60908C93.5638 4.83599 93.4414 5.2118 93.4414 5.74362V8.71824H92.5738V5.37489C92.5738 5.02744 92.5306 4.77571 92.4478 4.61262C92.3146 4.37153 92.0662 4.25453 91.7062 4.25453C91.375 4.25453 91.0726 4.38217 90.8026 4.6339C90.5326 4.88917 90.3994 5.34653 90.3994 6.00243V8.71469H89.5282V3.59508H89.5246Z" fill="#F39800"/>
<path d="M97.9628 3.59508H98.8124V4.32899C99.0212 4.07372 99.2048 3.88935 99.374 3.7759C99.662 3.5809 99.986 3.48163 100.353 3.48163C100.764 3.48163 101.098 3.58445 101.347 3.78299C101.487 3.89999 101.617 4.07017 101.732 4.29353C101.926 4.01699 102.16 3.8149 102.423 3.68017C102.69 3.54545 102.985 3.48163 103.316 3.48163C104.022 3.48163 104.504 3.72981 104.756 4.22617C104.893 4.49562 104.961 4.85371 104.961 5.30753V8.71824H104.043V5.16571C104.043 4.82535 103.957 4.59135 103.78 4.46371C103.604 4.33608 103.392 4.27226 103.14 4.27226C102.79 4.27226 102.495 4.38572 102.243 4.60908C101.991 4.83599 101.869 5.2118 101.869 5.74362V8.71824H101.001V5.37489C101.001 5.02744 100.962 4.77571 100.875 4.61262C100.742 4.37153 100.494 4.25453 100.134 4.25453C99.8024 4.25453 99.5036 4.38217 99.2336 4.6339C98.9636 4.88917 98.8268 5.34653 98.8268 6.00243V8.71469H97.9592V3.59508H97.9628Z" fill="#F39800"/>
<path d="M107.265 3.5951V7.01644C107.265 7.27881 107.309 7.49508 107.388 7.66171C107.543 7.97017 107.827 8.12262 108.241 8.12262C108.839 8.12262 109.242 7.85317 109.458 7.31426C109.577 7.02353 109.634 6.62999 109.634 6.12654V3.59155H110.502V8.71471H109.681L109.692 7.98435C109.58 8.1758 109.44 8.33535 109.278 8.46653C108.95 8.72889 108.554 8.86362 108.09 8.86362C107.363 8.86362 106.869 8.61544 106.607 8.12971C106.463 7.86735 106.391 7.5199 106.391 7.08026V3.59155H107.265V3.5951Z" fill="#F39800"/>
<path d="M112.079 3.59508H112.899V4.3219C113.144 4.02408 113.407 3.80781 113.681 3.67663C113.958 3.54545 114.264 3.48163 114.602 3.48163C115.34 3.48163 115.841 3.73335 116.103 4.24035C116.247 4.52044 116.319 4.91399 116.319 5.43162V8.71824H115.452V5.48835C115.452 5.17635 115.405 4.92462 115.308 4.73317C115.153 4.41408 114.869 4.25453 114.455 4.25453C114.242 4.25453 114.073 4.27581 113.94 4.31835C113.695 4.38926 113.483 4.52753 113.299 4.74026C113.151 4.91044 113.058 5.08417 113.015 5.26498C112.971 5.4458 112.95 5.70107 112.95 6.03789V8.72179H112.082V3.59508H112.079Z" fill="#F39800"/>
<path d="M117.763 1.677H118.631V2.67682H117.763V1.677ZM117.763 3.62699H118.631V8.71824H117.763V3.62699Z" fill="#F39800"/>
<path d="M123.566 3.87162C123.933 4.15171 124.153 4.63389 124.228 5.31816H123.375C123.325 5.00616 123.21 4.7438 123.022 4.53462C122.839 4.32544 122.544 4.21907 122.137 4.21907C121.579 4.21907 121.183 4.48853 120.945 5.02389C120.791 5.37134 120.711 5.79679 120.711 6.30379C120.711 6.81788 120.823 7.24688 121.043 7.59788C121.266 7.94533 121.608 8.1226 122.079 8.1226C122.443 8.1226 122.731 8.01269 122.943 7.79287C123.156 7.57306 123.3 7.27524 123.379 6.89942H124.232C124.135 7.58015 123.89 8.07651 123.505 8.39205C123.12 8.7076 122.623 8.86714 122.014 8.86714C121.334 8.86714 120.794 8.61896 120.391 8.12969C119.988 7.64042 119.783 7.03061 119.783 6.2967C119.783 5.3997 120.002 4.69771 120.449 4.1978C120.891 3.69789 121.456 3.44617 122.14 3.44617C122.724 3.44971 123.199 3.59153 123.566 3.87162Z" fill="#F39800"/>
<path d="M128.03 5.59825C128.232 5.57343 128.369 5.49188 128.433 5.34652C128.469 5.27207 128.484 5.16216 128.484 5.02034C128.484 4.72607 128.376 4.52043 128.167 4.38571C127.955 4.25453 127.656 4.19071 127.26 4.19071C126.81 4.19071 126.489 4.30771 126.299 4.5488C126.194 4.67998 126.122 4.87852 126.09 5.13734H125.273C125.291 4.50271 125.496 4.06662 125.895 3.81844C126.291 3.57026 126.756 3.44617 127.281 3.44617C127.89 3.44617 128.387 3.56317 128.768 3.79717C129.146 4.03116 129.333 4.3928 129.333 4.87852V7.83896C129.333 7.9276 129.351 8.00205 129.387 8.05524C129.423 8.11196 129.503 8.13678 129.618 8.13678C129.657 8.13678 129.701 8.13324 129.747 8.12969C129.794 8.12614 129.845 8.11905 129.902 8.10842V8.74305C129.769 8.78205 129.665 8.80687 129.593 8.81396C129.521 8.8246 129.427 8.83169 129.305 8.83169C129.006 8.83169 128.79 8.72532 128.653 8.51614C128.581 8.40269 128.534 8.24669 128.505 8.0446C128.329 8.27505 128.073 8.4736 127.739 8.64378C127.407 8.81396 127.037 8.89905 126.637 8.89905C126.155 8.89905 125.759 8.75369 125.453 8.46296C125.147 8.17578 124.992 7.8106 124.992 7.37451C124.992 6.89588 125.143 6.52361 125.445 6.26124C125.744 5.99888 126.144 5.83579 126.63 5.77552L128.03 5.59825ZM126.194 7.93824C126.378 8.0836 126.597 8.15451 126.849 8.15451C127.159 8.15451 127.454 8.0836 127.742 7.94533C128.228 7.71487 128.469 7.33197 128.469 6.80015V6.09815C128.361 6.16906 128.225 6.22579 128.059 6.26834C127.89 6.31443 127.724 6.34633 127.566 6.36761L127.04 6.43497C126.723 6.47397 126.486 6.54133 126.324 6.62997C126.05 6.78242 125.917 7.01997 125.917 7.34615C125.917 7.60142 126.007 7.79642 126.194 7.93824Z" fill="#F39800"/>
<path d="M131.108 2.17691H131.976V3.59509H132.826V4.30417H131.976V7.63334C131.976 7.81061 132.037 7.93116 132.163 7.98788C132.235 8.02334 132.35 8.04106 132.512 8.04106C132.556 8.04106 132.602 8.04106 132.649 8.03752C132.7 8.03752 132.757 8.03397 132.826 8.02688V8.71824C132.725 8.74661 132.62 8.76788 132.512 8.78206C132.404 8.7927 132.289 8.79979 132.159 8.79979C131.749 8.79979 131.472 8.69697 131.324 8.49488C131.18 8.28925 131.108 8.02334 131.108 7.69361V4.30417H130.403V3.59509H131.108V2.17691Z" fill="#F39800"/>
<path d="M133.841 1.677H134.708V2.67682H133.841V1.677ZM133.841 3.62699H134.708V8.71824H133.841V3.62699Z" fill="#F39800"/>
<path d="M139.975 4.10916C140.436 4.5488 140.666 5.19407 140.666 6.04852C140.666 6.87106 140.465 7.55178 140.058 8.09069C139.655 8.6296 139.025 8.89905 138.175 8.89905C137.466 8.89905 136.901 8.66151 136.483 8.18287C136.062 7.70778 135.857 7.06606 135.857 6.26834C135.857 5.4068 136.073 4.72607 136.515 4.21553C136.955 3.70853 137.545 3.45326 138.29 3.45326C138.953 3.44971 139.518 3.66953 139.975 4.10916ZM139.431 7.50924C139.644 7.0767 139.752 6.59806 139.752 6.06979C139.752 5.59116 139.673 5.20116 139.521 4.90334C139.277 4.4318 138.855 4.1978 138.258 4.1978C137.729 4.1978 137.343 4.39635 137.102 4.79698C136.861 5.20116 136.739 5.68334 136.739 6.25061C136.739 6.79661 136.861 7.25042 137.102 7.61206C137.34 7.97724 137.721 8.15805 138.247 8.15805C138.823 8.15451 139.215 7.93824 139.431 7.50924Z" fill="#F39800"/>
<path d="M141.883 3.59508H142.7V4.3219C142.949 4.02408 143.208 3.80781 143.485 3.67663C143.759 3.54545 144.068 3.48163 144.407 3.48163C145.145 3.48163 145.649 3.73335 145.908 4.24035C146.048 4.52044 146.124 4.91399 146.124 5.43162V8.71824H145.256V5.48835C145.256 5.17635 145.209 4.92462 145.116 4.73317C144.961 4.41408 144.677 4.25453 144.263 4.25453C144.054 4.25453 143.881 4.27581 143.748 4.31835C143.507 4.38926 143.291 4.52753 143.111 4.74026C142.967 4.91044 142.866 5.08417 142.823 5.26498C142.779 5.4458 142.758 5.70107 142.758 6.03789V8.72179H141.89V3.59508H141.883Z" fill="#F39800"/>
<path d="M148.618 8.89552C148.618 9.62233 148.5 9.85633 147.992 10.1577L147.722 9.8386C148.129 9.65069 148.201 9.50179 148.201 8.89552H147.625V7.92761H148.618V8.89552Z" fill="#F39800"/>
<path d="M153.129 1.69119H154.263L157.827 7.37098V1.69119H158.742V8.71825H157.662L154.044 3.02073V8.7218H153.129V1.69119Z" fill="#F39800"/>
<path d="M163.569 3.74045C163.915 3.91063 164.178 4.13045 164.358 4.40344C164.534 4.66226 164.649 4.96362 164.707 5.31108C164.761 5.54507 164.786 5.92089 164.786 6.43498H160.988C161.002 6.95616 161.128 7.37452 161.359 7.68652C161.593 8.00561 161.949 8.16161 162.439 8.16161C162.892 8.16161 163.26 8.01624 163.53 7.72197C163.681 7.55179 163.789 7.35679 163.846 7.12988H164.718C164.696 7.31779 164.617 7.52697 164.491 7.75388C164.361 7.98433 164.217 8.17224 164.059 8.31761C163.796 8.56933 163.468 8.73951 163.08 8.82815C162.871 8.87778 162.633 8.9026 162.367 8.9026C161.722 8.9026 161.175 8.6686 160.725 8.2077C160.275 7.74325 160.052 7.09443 160.052 6.25771C160.052 5.43517 160.275 4.76862 160.729 4.25808C161.179 3.74399 161.769 3.48872 162.496 3.48872C162.867 3.48163 163.224 3.56672 163.569 3.74045ZM163.9 5.75426C163.864 5.37844 163.782 5.07708 163.652 4.85017C163.411 4.43181 163.008 4.21908 162.45 4.21908C162.05 4.21908 161.712 4.36444 161.438 4.65162C161.164 4.9388 161.02 5.30753 161.002 5.75071H163.9V5.75426Z" fill="#F39800"/>
<path d="M165.538 3.59509H166.669L167.864 5.39972L169.074 3.59509L170.139 3.61991L168.386 6.09463L170.218 8.7218H169.102L167.81 6.80017L166.557 8.7218H165.448L167.281 6.09463L165.538 3.59509Z" fill="#F39800"/>
<path d="M171.331 2.17691H172.198V3.59509H173.048V4.30417H172.198V7.63334C172.198 7.81061 172.26 7.93116 172.386 7.98788C172.454 8.02334 172.569 8.04106 172.735 8.04106C172.778 8.04106 172.825 8.04106 172.872 8.03752C172.922 8.03752 172.98 8.03397 173.048 8.02688V8.71824C172.947 8.74661 172.843 8.76788 172.735 8.78206C172.627 8.7927 172.508 8.79979 172.382 8.79979C171.972 8.79979 171.694 8.69697 171.547 8.49488C171.403 8.28925 171.327 8.02334 171.327 7.69361V4.30417H170.625V3.59509H171.327V2.17691H171.331Z" fill="#F39800"/>
<path d="M176.979 1.677H177.847V2.67682H176.979V1.677ZM176.979 3.62699H177.847V8.71824H176.979V3.62699Z" fill="#F39800"/>
<path d="M179.337 3.59508H180.158V4.3219C180.403 4.02408 180.666 3.80781 180.939 3.67663C181.216 3.54545 181.522 3.48163 181.861 3.48163C182.599 3.48163 183.099 3.73335 183.362 4.24035C183.506 4.52044 183.574 4.91399 183.574 5.43162V8.71824H182.707V5.48835C182.707 5.17635 182.66 4.92462 182.566 4.73317C182.408 4.41408 182.127 4.25453 181.713 4.25453C181.501 4.25453 181.332 4.27581 181.195 4.31835C180.95 4.38926 180.741 4.52753 180.558 4.74026C180.41 4.91044 180.313 5.08417 180.27 5.26498C180.226 5.4458 180.205 5.70107 180.205 6.03789V8.72179H179.337V3.59508Z" fill="#F39800"/>
<path d="M185.421 2.03864C185.627 1.74437 186.023 1.59546 186.609 1.59546C186.663 1.59546 186.721 1.599 186.782 1.599C186.84 1.60255 186.908 1.6061 186.984 1.61319V2.40027C186.89 2.39318 186.825 2.38964 186.782 2.38609C186.743 2.38609 186.699 2.38609 186.663 2.38609C186.39 2.38609 186.228 2.45345 186.177 2.58818C186.123 2.72291 186.098 3.07036 186.098 3.62699H186.98V4.30417H186.098V8.71824H185.231V4.30417H184.511V3.62699H185.231V2.82218C185.249 2.46764 185.31 2.20173 185.421 2.03864Z" fill="#F39800"/>
<path d="M191.71 4.10916C192.168 4.5488 192.402 5.19407 192.402 6.04852C192.402 6.87106 192.2 7.55178 191.793 8.09069C191.386 8.6296 190.76 8.89905 189.907 8.89905C189.198 8.89905 188.632 8.66151 188.215 8.18287C187.797 7.70778 187.588 7.06606 187.588 6.26834C187.588 5.4068 187.808 4.72607 188.251 4.21553C188.69 3.70853 189.28 3.45326 190.026 3.45326C190.688 3.44971 191.25 3.66953 191.71 4.10916ZM191.163 7.50924C191.376 7.0767 191.484 6.59806 191.484 6.06979C191.484 5.59116 191.408 5.20116 191.253 4.90334C191.008 4.4318 190.587 4.1978 189.99 4.1978C189.46 4.1978 189.075 4.39635 188.83 4.79698C188.593 5.20116 188.47 5.68334 188.47 6.25061C188.47 6.79661 188.589 7.25042 188.83 7.61206C189.075 7.97724 189.453 8.15805 189.979 8.15805C190.555 8.15451 190.947 7.93824 191.163 7.50924Z" fill="#F39800"/>
<path d="M193.647 3.59508H194.464V4.46726C194.533 4.29708 194.702 4.09144 194.972 3.84681C195.242 3.60217 195.548 3.48163 195.901 3.48163C195.915 3.48163 195.944 3.48163 195.984 3.48163C196.023 3.48517 196.092 3.48872 196.185 3.49581V4.39635C196.135 4.38926 196.084 4.38572 196.041 4.38572C195.998 4.38572 195.951 4.38217 195.897 4.38217C195.454 4.38217 195.112 4.52044 194.871 4.79699C194.634 5.07353 194.515 5.39616 194.515 5.76134V8.71824H193.647V3.59508Z" fill="#F39800"/>
<path d="M197.078 3.59508H197.928V4.32899C198.133 4.07372 198.32 3.88935 198.493 3.7759C198.777 3.5809 199.105 3.48163 199.468 3.48163C199.879 3.48163 200.214 3.58445 200.462 3.78299C200.606 3.89999 200.732 4.07017 200.847 4.29353C201.042 4.01699 201.276 3.8149 201.538 3.68017C201.801 3.54545 202.1 3.48163 202.431 3.48163C203.137 3.48163 203.619 3.72981 203.875 4.22617C204.012 4.49562 204.08 4.85371 204.08 5.30753V8.71824H203.162V5.16571C203.162 4.82535 203.076 4.59135 202.899 4.46371C202.723 4.33608 202.51 4.27226 202.258 4.27226C201.913 4.27226 201.614 4.38572 201.362 4.60908C201.114 4.83599 200.988 5.2118 200.988 5.74362V8.71824H200.124V5.37489C200.124 5.02744 200.08 4.77571 199.994 4.61262C199.864 4.37153 199.612 4.25453 199.252 4.25453C198.921 4.25453 198.622 4.38217 198.349 4.6339C198.079 4.88917 197.946 5.34653 197.946 6.00243V8.71469H197.078V3.59508Z" fill="#F39800"/>
<path d="M208.299 5.59825C208.501 5.57343 208.634 5.49188 208.702 5.34652C208.738 5.27207 208.753 5.16216 208.753 5.02034C208.753 4.72607 208.648 4.52043 208.436 4.38571C208.227 4.25453 207.925 4.19071 207.532 4.19071C207.082 4.19071 206.758 4.30771 206.571 4.5488C206.467 4.67998 206.395 4.87852 206.366 5.13734H205.549C205.563 4.50271 205.768 4.06662 206.168 3.81844C206.568 3.57026 207.028 3.44617 207.554 3.44617C208.162 3.44617 208.656 3.56317 209.037 3.79717C209.415 4.03116 209.606 4.3928 209.606 4.87852V7.83896C209.606 7.9276 209.624 8.00205 209.66 8.05524C209.696 8.11196 209.775 8.13678 209.894 8.13678C209.934 8.13678 209.977 8.13324 210.024 8.12969C210.07 8.12614 210.121 8.11905 210.178 8.10842V8.74305C210.045 8.78205 209.941 8.80687 209.869 8.81396C209.8 8.8246 209.703 8.83169 209.581 8.83169C209.282 8.83169 209.066 8.72532 208.929 8.51614C208.861 8.40269 208.81 8.24669 208.782 8.0446C208.605 8.27505 208.35 8.4736 208.015 8.64378C207.68 8.81396 207.313 8.89905 206.913 8.89905C206.431 8.89905 206.035 8.75369 205.729 8.46296C205.423 8.17578 205.272 7.8106 205.272 7.37451C205.272 6.89588 205.419 6.52361 205.722 6.26124C206.02 5.99888 206.416 5.83579 206.906 5.77552L208.299 5.59825ZM206.46 7.93824C206.647 8.0836 206.863 8.15451 207.115 8.15451C207.421 8.15451 207.72 8.0836 208.008 7.94533C208.494 7.71487 208.738 7.33197 208.738 6.80015V6.09815C208.63 6.16906 208.494 6.22579 208.324 6.26834C208.159 6.31443 207.993 6.34633 207.831 6.36761L207.306 6.43497C206.989 6.47397 206.751 6.54133 206.589 6.62997C206.319 6.78242 206.182 7.01997 206.182 7.34615C206.182 7.60142 206.276 7.79642 206.46 7.93824Z" fill="#F39800"/>
<path d="M211.374 2.17691H212.241V3.59509H213.094V4.30417H212.241V7.63334C212.241 7.81061 212.302 7.93116 212.432 7.98788C212.504 8.02334 212.619 8.04106 212.781 8.04106C212.824 8.04106 212.868 8.04106 212.922 8.03752C212.968 8.03752 213.03 8.03397 213.098 8.02688V8.71824C212.994 8.74661 212.893 8.76788 212.785 8.78206C212.677 8.7927 212.558 8.79979 212.432 8.79979C212.025 8.79979 211.744 8.69697 211.6 8.49488C211.456 8.28925 211.381 8.02334 211.381 7.69361V4.30417H210.679V3.59509H211.381V2.17691H211.374Z" fill="#F39800"/>
<path d="M214.11 1.677H214.977V2.67682H214.11V1.677ZM214.11 3.62699H214.977V8.71824H214.11V3.62699Z" fill="#F39800"/>
<path d="M220.244 4.10916C220.705 4.5488 220.935 5.19407 220.935 6.04852C220.935 6.87106 220.73 7.55178 220.327 8.09069C219.923 8.6296 219.293 8.89905 218.44 8.89905C217.731 8.89905 217.166 8.66151 216.748 8.18287C216.331 7.70778 216.122 7.06606 216.122 6.26834C216.122 5.4068 216.341 4.72607 216.781 4.21553C217.22 3.70853 217.81 3.45326 218.555 3.45326C219.225 3.44971 219.787 3.66953 220.244 4.10916ZM219.697 7.50924C219.913 7.0767 220.017 6.59806 220.017 6.06979C220.017 5.59116 219.941 5.20116 219.787 4.90334C219.542 4.4318 219.124 4.1978 218.523 4.1978C217.994 4.1978 217.609 4.39635 217.367 4.79698C217.126 5.20116 217.007 5.68334 217.007 6.25061C217.007 6.79661 217.126 7.25042 217.367 7.61206C217.609 7.97724 217.99 8.15805 218.516 8.15805C219.088 8.15451 219.484 7.93824 219.697 7.50924Z" fill="#F39800"/>
<path d="M222.152 3.59508H222.969V4.3219C223.214 4.02408 223.477 3.80781 223.754 3.67663C224.027 3.54545 224.337 3.48163 224.672 3.48163C225.41 3.48163 225.914 3.73335 226.173 4.24035C226.317 4.52044 226.385 4.91399 226.385 5.43162V8.71824H225.521V5.48835C225.521 5.17635 225.471 4.92462 225.377 4.73317C225.219 4.41408 224.935 4.25453 224.521 4.25453C224.312 4.25453 224.139 4.27581 224.002 4.31835C223.761 4.38926 223.552 4.52753 223.365 4.74026C223.217 4.91044 223.124 5.08417 223.077 5.26498C223.034 5.4458 223.012 5.70107 223.012 6.03789V8.72179H222.145V3.59508H222.152Z" fill="#F39800"/>
<path d="M228.34 1.677H229.305V3.99217L229.071 7.04479H228.589L228.344 3.99217V1.677H228.34ZM228.34 7.71843H229.291V8.71824H228.34V7.71843Z" fill="#F39800"/>
<path d="M186.066 17.2663L176.918 17.2557V34.1249L179.377 34.139V26.7007H186.066V26.6865C188.708 26.6865 190.85 24.577 190.85 21.9747C190.85 19.3723 188.708 17.2663 186.066 17.2663ZM185.987 24.5699V24.5593H179.402V19.3971H185.987V19.4042C187.434 19.4042 188.607 20.56 188.607 21.9888C188.607 23.4141 187.434 24.5699 185.987 24.5699Z" fill="#F39800"/>
<path d="M185.554 26.4242L189.05 34.1H191.79L188.082 26.1051" fill="#F39800"/>
<defs>
<linearGradient id="paint0_linear" x1="17.2789" y1="38.1811" x2="17.2239" y2="0.933911" gradientUnits="userSpaceOnUse">
<stop stop-color="#FAC03D"/>
<stop offset="1" stop-color="#F08300"/>
</linearGradient>
<linearGradient id="paint1_linear" x1="26.8191" y1="37.6112" x2="26.7641" y2="0.370202" gradientUnits="userSpaceOnUse">
<stop stop-color="#FAC03D"/>
<stop offset="1" stop-color="#F08300"/>
</linearGradient>
</defs>
</svg>
