<svg width="565" height="1006" viewBox="0 0 565 1006" fill="none" xmlns="http://www.w3.org/2000/svg">
<rect x="7" y="7" width="374.253" height="800.411" rx="53" stroke="black" stroke-width="14"/>
<rect x="207" y="160.814" width="357.238" height="782.248" rx="46" fill="black" fill-opacity="0.5"/>
<rect x="225" y="392" width="321.514" height="321.514" fill="#EEEEEE"/>
<path d="M284.04 554.2V556.8C284.04 557.24 284 557.28 283.64 557.28C283.4 557.28 282.2 557.24 279.12 557.2C278.24 559.56 277.08 561.48 275.76 563.04C278.28 564.12 280.68 565.32 282.96 566.68C283.16 566.8 283.28 566.88 283.28 567C283.28 567.12 283.16 567.24 283 567.48L281.28 569.8C281.04 570.12 280.92 570.2 280.8 570.2C280.68 570.2 280.6 570.16 280.44 570.04C277.92 568.32 275.48 566.92 272.88 565.72C269.64 568.12 265.56 569.32 260.88 569.88C260.56 569.92 260.24 569.96 260.08 569.96C259.72 569.96 259.56 569.68 259.24 568.84C258.92 568.04 258.4 567.16 257.8 566.52C262.56 566.16 266.08 565.36 268.72 564C267.6 563.56 266.44 563.16 265.24 562.76L264.92 563.12C264.44 563.76 264.24 564.04 263.4 563.64L261.6 562.84C261.12 562.64 260.92 562.48 260.92 562.32C260.92 562.2 261 562.08 261.16 561.88C261.84 561.08 262.72 559.96 263.36 559.04C263.72 558.48 264.12 557.88 264.52 557.2C261.32 557.24 260.08 557.28 259.88 557.28C259.52 557.28 259.48 557.24 259.48 556.8V554.2C259.48 553.84 259.52 553.8 259.88 553.8C260.12 553.8 261.48 553.88 265.36 553.88H266.32L266.64 553.28C267 552.44 267.44 551.44 267.72 550.2H265.6C261.72 550.2 260.4 550.28 260.16 550.28C259.76 550.28 259.72 550.24 259.72 549.84V547.2C259.72 546.76 259.76 546.72 260.16 546.72C260.4 546.72 261.72 546.8 265.6 546.8H273.44C274 545.64 274.44 544.4 274.8 543.24C274.96 542.72 275.08 542.12 275.12 541.4C276.56 541.56 277.56 541.72 278.76 541.96C279.16 542.04 279.44 542.12 279.44 542.4C279.44 542.68 279.2 542.84 279.08 542.96C278.88 543.16 278.76 543.4 278.6 543.8C278.12 544.96 277.8 545.76 277.28 546.8H278.2C282.04 546.8 283.4 546.72 283.64 546.72C284 546.72 284.04 546.76 284.04 547.2V549.84C284.04 550.24 284 550.28 283.64 550.28C283.4 550.28 282.04 550.2 278.2 550.2H269.32L271.76 550.92C272.08 551.04 272.24 551.2 272.24 551.48C272.24 551.76 272.08 551.96 271.76 552.2C271.52 552.4 271.24 552.72 270.76 553.68L270.64 553.88H278.16C282.04 553.88 283.4 553.8 283.64 553.8C284 553.8 284.04 553.72 284.04 554.2ZM274.92 557.2H268.92C268.36 558.2 267.84 559.12 267.28 560C268.88 560.48 270.48 561 272.08 561.6C273.28 560.36 274.2 558.92 274.92 557.2ZM256.28 555.32V557.08C256.28 560.92 256.4 563.08 256.4 565.08C256.4 567.28 256 568.32 255.08 569.04C254.2 569.68 253.36 569.92 250.8 569.92C249.52 569.96 249.52 569.96 249.28 568.72C249.04 567.52 248.6 566.48 248.28 565.84C249.24 565.96 249.88 565.96 251.36 565.96C252.2 565.96 252.36 565.68 252.36 564.56V556.84L250.76 557.36C250.04 557.64 249.6 557.88 249.36 558.04C249.16 558.2 248.92 558.28 248.68 558.28C248.44 558.28 248.24 558.16 248.16 557.8C247.92 556.76 247.72 555.44 247.56 554.04C248.72 553.92 249.84 553.68 251.24 553.28L252.36 552.96V545.12H251.72C249.24 545.12 248.48 545.2 248.24 545.2C247.88 545.2 247.84 545.16 247.84 544.76V541.84C247.84 541.44 247.88 541.4 248.24 541.4C248.48 541.4 249.24 541.48 251.72 541.48H252.36V539.36C252.36 536.8 252.28 535.52 252.04 533.68C253.52 533.72 254.8 533.8 256.12 534C256.52 534.04 256.8 534.2 256.8 534.4C256.8 534.72 256.64 534.96 256.52 535.24C256.28 535.72 256.28 536.56 256.28 539.28V541.48C258.36 541.48 259.08 541.4 259.32 541.4C259.72 541.4 259.76 541.44 259.76 541.84V544.76C259.76 545.16 259.72 545.2 259.32 545.2C259.08 545.2 258.36 545.12 256.28 545.12V551.56C257.2 551.16 258.2 550.76 259.2 550.28C259.08 551.04 259 552.2 258.96 553.28C258.92 554.08 258.92 554.16 258.24 554.44L256.28 555.32ZM277.36 541.24H266.56C262.76 541.24 261.44 541.32 261.2 541.32C260.8 541.32 260.76 541.28 260.76 540.88V538.32C260.76 537.96 260.8 537.92 261.2 537.92C261.44 537.92 262.76 538 266.56 538H269.32V536.92C269.32 535.48 269.28 534.64 269.08 533.68C270.56 533.72 271.8 533.8 273.12 533.92C273.56 533.96 273.8 534.12 273.8 534.32C273.8 534.52 273.72 534.68 273.56 534.96C273.4 535.28 273.32 535.84 273.32 536.88V538H277.36C281.12 538 282.44 537.92 282.68 537.92C283.08 537.92 283.12 537.96 283.12 538.32V540.88C283.12 541.28 283.08 541.32 282.68 541.32C282.44 541.32 281.12 541.24 277.36 541.24ZM268.64 545.88L266.12 546.48C265.68 546.6 265.52 546.6 265.4 546.16C265.08 544.8 264.68 543.68 264.28 542.72C264.12 542.32 264.16 542.2 264.64 542.08L266.92 541.52C267.44 541.4 267.56 541.4 267.72 541.72C268.2 542.64 268.64 543.8 269.08 545.2C269.2 545.6 269.12 545.76 268.64 545.88ZM307.8 537.08H317.16C320.88 537.08 322.2 537 322.44 537C322.84 537 322.88 537.04 322.88 537.44C322.88 537.68 322.8 538.36 322.8 539.36V541C322.8 544.4 322.88 545.04 322.88 545.28C322.88 545.68 322.84 545.72 322.44 545.72H319.16C318.76 545.72 318.72 545.68 318.72 545.28V540.6H301.72C302.84 540.8 303.96 541.12 304.96 541.4C305.32 541.52 305.52 541.64 305.52 541.88C305.52 542.12 305.32 542.28 305.04 542.44C304.76 542.6 304.6 542.84 304.28 543.24L303.96 543.64H312.44C312.96 543.64 313.24 543.56 313.44 543.48C313.68 543.4 313.8 543.32 314 543.32C314.24 543.32 314.6 543.48 315.6 544.56C316.56 545.64 316.72 545.92 316.72 546.32C316.72 546.64 316.6 546.84 316.2 547C315.88 547.16 315.52 547.48 314.8 548.16C313.2 549.68 311.6 551 309.88 552.2C314.04 553.8 318.92 554.88 324.76 555.56C324.08 556.48 323.64 557.32 323.24 558.56C322.92 559.56 322.92 559.56 321.68 559.32C320.16 559.04 318.72 558.72 317.36 558.36C317.32 558.84 317.28 559.72 317.28 561.2V564.36C317.28 568.52 317.36 569.56 317.36 569.76C317.36 570.16 317.32 570.2 316.92 570.2H313.68C313.28 570.2 313.24 570.16 313.24 569.76V568.52H299V569.68C299 570.12 298.96 570.16 298.56 570.16H295.36C294.92 570.16 294.88 570.12 294.88 569.68C294.88 569.48 294.96 568.44 294.96 564.36V561.64C294.96 560.28 294.92 559.36 294.92 558.8C293.64 559.16 292.36 559.48 290.96 559.8C289.72 560.08 289.72 560.08 289.28 559.04C288.88 558 288.32 557.2 287.76 556.52C293.88 555.52 298.6 554.2 302.56 552.36C301.04 551.36 299.64 550.24 298.28 549.04C296.84 550.08 295.2 551.08 293.4 552C292.88 552.24 292.64 552.4 292.44 552.4C292.2 552.4 292.08 552.2 291.8 551.76C291.2 550.8 290.52 550.08 289.88 549.64C294.8 547.44 297.76 545.36 300.2 542.48C300.6 541.96 301 541.4 301.4 540.6H293.24V545.28C293.24 545.68 293.2 545.72 292.8 545.72H289.52C289.12 545.72 289.08 545.68 289.08 545.28C289.08 545 289.16 544.4 289.16 541V539.68C289.16 538.36 289.08 537.72 289.08 537.44C289.08 537.04 289.12 537 289.52 537C289.76 537 291.08 537.08 294.8 537.08H303.6V536.44C303.6 535.36 303.56 534.48 303.32 533.44C304.72 533.48 306.24 533.56 307.6 533.68C308.04 533.72 308.24 533.88 308.24 534.08C308.24 534.36 308.12 534.56 308 534.84C307.88 535.2 307.8 535.6 307.8 536.48V537.08ZM299 560.96V565.24H313.24V560.96H299ZM298.52 557.72H314.84C311.6 556.8 308.76 555.72 306.24 554.44C303.96 555.68 301.4 556.76 298.52 557.72ZM300.96 546.8L300.88 546.88C302.48 548.24 304.2 549.4 306.12 550.44C307.8 549.36 309.36 548.16 310.84 546.8H300.96ZM356.16 542.48H338.88C336.6 542.48 334.16 542.64 331.8 542.8C331.32 542.84 331.16 542.56 331.08 542.2C330.76 541.08 330.52 539.08 330.36 537.88C333.08 538.08 335.28 538.16 338.48 538.16H355.64C357.32 538.16 358 538.08 358.4 537.92C358.6 537.84 358.96 537.64 359.16 537.64C359.48 537.64 359.8 537.88 360.08 538.2C360.96 538.96 361.72 539.8 362.48 540.72C362.68 540.96 362.8 541.2 362.8 541.44C362.8 541.76 362.6 542.04 362.24 542.28C361.8 542.6 361.48 543 361.16 543.44C359.28 546.28 356.8 549.04 354.12 551.16C353.88 551.4 353.6 551.52 353.28 551.52C352.96 551.52 352.6 551.36 352.32 551.12C351.32 550.32 350.32 549.88 349 549.48C352.2 547.08 354.16 545.36 356.16 542.48ZM332.76 565.72C337.12 563.44 339.4 561.28 341.12 558.08C342.64 555.24 343.08 552.52 343.08 548.64C343.08 547.16 343 546.24 342.68 544.88C344.64 545.08 346.72 545.36 347.84 545.64C348.36 545.76 348.52 546.04 348.52 546.4C348.52 546.64 348.44 546.88 348.32 547.12C348.04 547.68 348 548.08 347.96 548.76C347.84 552.64 347.44 556.2 345.6 559.76C344.04 562.76 341.64 565.6 338.32 567.72C337.96 567.96 337.6 568.12 337.2 568.12C336.92 568.12 336.64 568 336.4 567.76C335.44 566.92 334.28 566.28 332.76 565.72ZM386.08 541.44L393.28 541.28C394.32 541.24 394.84 541.08 395.28 540.8C395.44 540.68 395.6 540.64 395.8 540.64C396 540.64 396.2 540.72 396.44 540.88C397.44 541.52 398.36 542.28 399.16 543.04C399.52 543.36 399.68 543.68 399.68 543.96C399.68 544.28 399.48 544.56 399.2 544.8C398.64 545.24 398.24 545.8 397.88 546.52C395.2 551.96 392.64 555.84 389.96 558.88C386.52 562.76 381.76 566.64 377.8 568.84C377.56 569 377.36 569.04 377.16 569.04C376.84 569.04 376.56 568.88 376.24 568.6C375.24 567.8 374 567.2 372.44 566.76C378.68 563.32 381.84 560.8 385.76 556.56C388.92 553.04 390.76 550.32 393.16 545.2L383.48 545.48C380.2 549.52 378.2 551.8 375.92 553.68C375.64 553.96 375.36 554.12 375.08 554.12C374.88 554.12 374.68 554.04 374.48 553.88C373.48 553.16 372 552.44 370.64 552.16C375.84 547.92 378.92 544.2 381.4 540.28C382.72 538.04 383.32 536.8 383.76 534.88C386.04 535.68 387.56 536.36 388.44 537C388.72 537.2 388.84 537.44 388.84 537.68C388.84 537.92 388.72 538.16 388.4 538.36C388 538.6 387.72 539.04 387.4 539.44C386.96 540.12 386.56 540.72 386.08 541.44ZM409.96 549.6C410.96 548 411.6 546.84 412.08 546.2C412.28 545.92 412.48 545.72 412.84 545.8C415.84 546.8 418.24 548.08 420.52 549.72C420.8 549.92 420.96 550.08 420.96 550.32C420.96 550.44 420.88 550.6 420.8 550.76C420.36 551.84 419.68 552.88 419.04 553.8C418.84 554.04 418.68 554.2 418.52 554.2C418.36 554.2 418.24 554.12 418.04 553.96C415.48 552.08 412.88 550.76 409.96 549.6ZM414.8 540.2C415.48 539.16 416.24 538.04 416.92 537C417.2 536.52 417.44 536.44 417.92 536.68C420.48 537.72 423.24 539.2 425.44 541.12C425.68 541.28 425.76 541.48 425.76 541.64C425.76 541.8 425.72 541.96 425.6 542.16C425.04 543.16 424.24 544.44 423.56 545.16C423.44 545.36 423.28 545.4 423.16 545.4C422.96 545.4 422.76 545.28 422.56 545.12C420.48 543.4 417.36 541.36 414.8 540.2ZM413.12 563C414.8 562.68 416.2 562.24 418.56 561.04C422.36 559.04 425.64 557.16 429.52 554.12C432.72 551.68 437 547.84 441.04 542.96C441.28 544.72 441.6 545.72 442.2 547.44C442.32 547.72 442.4 547.96 442.4 548.2C442.4 548.52 442.28 548.8 441.96 549.12C438.24 553.12 435.72 555.32 431.8 558.36C428.32 561 424.6 563.28 419.84 565.88C418.88 566.4 417.92 566.84 417.52 567.24C417.28 567.48 417.08 567.56 416.88 567.56C416.6 567.56 416.32 567.4 416.08 567.08C415.24 566.24 414.16 564.68 413.12 563ZM471.48 554.4V550.36H462.24C460.36 550.36 458.44 550.56 456.64 550.6C456.28 550.64 456.08 550.32 456.04 549.68C455.96 548.68 455.92 547.92 455.84 546.4C458.12 546.6 459.36 546.6 462.24 546.6H469.2C471.16 546.6 473.36 546.6 475.12 546.52C475.6 546.52 475.76 546.76 475.72 547.16C475.72 548.96 475.64 550.64 475.64 552.4V561.64C475.64 563.44 475.72 565.28 475.8 567.32C475.8 567.92 475.6 568.04 474.92 568.08C474.28 568.12 473 568.16 472.2 568.16C471.56 568.16 471.48 568.04 471.48 567.56V566.36H462C460.12 566.36 458.32 566.44 456.48 566.56C456.08 566.56 455.96 566.36 455.92 565.76C455.8 564.96 455.72 563.8 455.72 562.44C457.88 562.6 459.84 562.6 462.16 562.6H471.48V558.12H463C461.2 558.12 459.24 558.2 457.52 558.28C457.04 558.28 456.88 558.04 456.84 557.4C456.72 556.6 456.68 555.56 456.68 554.2C458.84 554.36 460.32 554.4 462.92 554.4H471.48ZM491.36 542.08C492.24 541 493.4 539.76 494.16 538.96C494.32 538.76 494.52 538.64 494.72 538.64C494.88 538.64 495.04 538.72 495.24 538.84C497.28 539.92 500.6 542.36 502.88 544.52C503.12 544.76 503.24 544.92 503.24 545.08C503.24 545.24 503.16 545.4 503 545.6C502.4 546.4 501.08 548 500.52 548.6C500.32 548.8 500.2 548.92 500.04 548.92C499.88 548.92 499.72 548.8 499.52 548.6C497.12 546.12 494.24 543.84 491.36 542.08ZM492.24 562.04C494.28 561.48 495.52 561.12 497.64 560.04C502.52 557.52 505.12 555.84 509.16 552.6C514.04 548.64 516.72 546.08 520.12 541.72C520.36 543.72 520.72 545.08 521.24 546.4C521.36 546.68 521.44 546.92 521.44 547.16C521.44 547.52 521.24 547.84 520.8 548.36C518.68 550.84 515.24 554.04 511.6 556.84C508.28 559.44 504.92 561.68 499.52 564.68C497.72 565.76 497.2 566.16 496.84 566.52C496.6 566.76 496.36 566.92 496.12 566.92C495.92 566.92 495.68 566.76 495.44 566.48C494.44 565.36 493.2 563.72 492.24 562.04Z" fill="black"/>
<path d="M331.64 974.04L325.44 1005.08H318.8L316.12 990.64C315.36 986.48 314.96 983.04 314.4 979H313.84C313.28 983.08 312.84 986.52 312.12 990.48L309.6 1005.08H302.96L296.92 974.04H302.4L304.64 988.2C305.2 992 305.72 995.76 306.2 999.72H306.76C307.32 995.84 307.72 992.04 308.4 988.32L310.92 974.04H317.84L320.44 988.8C321.04 992.32 321.52 995.6 321.96 999.72H322.52C323.12 995.56 323.48 992.4 324.08 988.56L326.48 974.04H331.64ZM353.032 995.2H338.192C338.232 999.36 340.072 1002.12 343.712 1002.12C345.992 1002.12 347.592 1000.84 348.352 997.96L352.912 999.28C351.552 1003.48 348.552 1005.64 343.672 1005.64C337.112 1005.64 333.272 1001.44 333.272 994.24C333.272 987.08 337.312 982.64 343.232 982.64C348.832 982.64 353.032 986.72 353.032 994.16V995.2ZM338.272 991.88H348.112C347.872 988.2 346.312 986.12 343.312 986.12C340.272 986.12 338.512 988.36 338.272 991.88ZM363.107 973.48V986.28C364.507 984 366.787 982.68 369.147 982.68C373.907 982.68 377.467 986.48 377.467 994C377.467 1001.52 373.507 1005.64 368.867 1005.64C366.027 1005.64 363.987 1004.28 362.707 1001.68L361.707 1005.08H358.107V973.48H363.107ZM363.107 990.36V998.08C364.107 1000.4 365.707 1001.76 367.547 1001.76C370.187 1001.76 372.307 999.4 372.307 994.08C372.307 988.88 370.347 986.6 367.827 986.6C365.947 986.6 364.227 987.84 363.107 990.36ZM405.918 974.04L396.438 1005.08H389.718L380.318 974.04H386.118L390.158 988.64C391.318 992.68 392.118 996.32 393.078 1000.12H393.638C394.518 996.4 395.398 992.8 396.518 988.8L400.598 974.04H405.918ZM415.06 983.12V1005.08H410.02V983.12H415.06ZM415.26 974.04V979.2H409.82V974.04H415.26ZM439.946 995.2H425.106C425.146 999.36 426.986 1002.12 430.626 1002.12C432.906 1002.12 434.506 1000.84 435.266 997.96L439.826 999.28C438.466 1003.48 435.466 1005.64 430.586 1005.64C424.026 1005.64 420.186 1001.44 420.186 994.24C420.186 987.08 424.226 982.64 430.146 982.64C435.746 982.64 439.946 986.72 439.946 994.16V995.2ZM425.186 991.88H435.026C434.786 988.2 433.226 986.12 430.226 986.12C427.186 986.12 425.426 988.36 425.186 991.88ZM474.381 983.12L468.341 1005.08H462.501L460.301 995.24C459.781 992.76 459.301 990.16 458.741 987.28H458.261C457.741 990.12 457.221 992.8 456.661 995.28L454.341 1005.08H448.501L442.621 983.12H447.781L449.861 992.76C450.461 995.52 450.981 998.4 451.501 1000.84H451.941C452.501 998.36 453.021 995.4 453.621 992.84L455.781 983.12H461.701L463.781 992.84C464.381 995.56 464.941 998.32 465.341 1000.84H465.821C466.381 998.2 466.821 995.6 467.461 992.8L469.581 983.12H474.381Z" fill="black"/>
<path d="M158.52 44.0952V75.1352H151.92L144.4 59.1352C142.6 55.2552 141.36 52.3752 139.96 48.8952H139.4C139.6 52.5752 139.68 56.2552 139.68 60.0952V75.1352H134.72V44.0952H142.84L149.28 57.8552C151.04 61.7352 152.24 64.8952 153.4 68.4952H153.96C153.72 64.6952 153.56 61.2952 153.56 57.1352V44.0952H158.52ZM169.57 59.9752L164.85 58.6952C165.97 54.7352 169.17 52.6552 173.93 52.6552C179.61 52.6552 182.45 55.0552 182.45 59.9352V68.6552C182.45 71.2152 182.61 73.2952 182.81 75.1352H178.17C178.01 74.1752 177.93 73.5352 177.81 72.2552C176.25 74.4952 173.69 75.6552 170.89 75.6552C166.85 75.6552 164.13 73.1352 164.13 69.1352C164.13 65.2952 166.53 62.8152 171.29 61.8952C173.17 61.5352 175.33 61.3352 177.57 61.2552V60.0152C177.57 57.2552 176.41 56.1352 173.77 56.1352C171.69 56.1352 170.01 57.4552 169.57 59.9752ZM177.57 68.4552V64.3752C175.45 64.4152 173.89 64.6952 172.53 65.0152C170.17 65.5752 168.93 66.7752 168.93 68.7352C168.93 70.8152 170.17 72.0552 172.45 72.0552C174.37 72.0552 176.29 70.8552 177.57 68.4552ZM194.771 46.0152V53.1752H199.691V56.8552H194.771V68.8952C194.771 71.0952 195.651 72.0552 197.491 72.0552C198.331 72.0552 199.131 72.0152 200.051 71.8152L199.851 75.4152C198.451 75.6152 197.251 75.6552 195.931 75.6552C191.771 75.6552 189.811 73.8552 189.811 69.8152V56.8552H186.531V53.1752H189.811V47.1352L194.771 46.0152ZM208.967 53.1752V75.1352H203.927V53.1752H208.967ZM209.167 44.0952V49.2552H203.727V44.0952H209.167ZM232.652 53.1752L225.772 75.1352H219.812L213.012 53.1752H218.412L220.692 62.3352C221.452 65.3352 221.972 67.8552 222.692 70.8952H223.172C223.972 67.8952 224.532 65.2952 225.372 62.2152L227.732 53.1752H232.652ZM255.18 65.2552H240.34C240.38 69.4152 242.22 72.1752 245.86 72.1752C248.14 72.1752 249.74 70.8952 250.5 68.0152L255.06 69.3352C253.7 73.5352 250.7 75.6952 245.82 75.6952C239.26 75.6952 235.42 71.4952 235.42 64.2952C235.42 57.1352 239.46 52.6952 245.38 52.6952C250.98 52.6952 255.18 56.7752 255.18 64.2152V65.2552ZM240.42 61.9352H250.26C250.02 58.2552 248.46 56.1752 245.46 56.1752C242.42 56.1752 240.66 58.4152 240.42 61.9352Z" fill="black"/>
</svg>
